<?xml version="1.0" encoding="utf-8"?>
<!-- Generator: Adobe Illustrator 16.0.0, SVG Export Plug-In . SVG Version: 6.00 Build 0)  -->
<!DOCTYPE svg PUBLIC "-//W3C//DTD SVG 1.1//EN" "http://www.w3.org/Graphics/SVG/1.1/DTD/svg11.dtd">
<svg version="1.1" id="Calque_1" xmlns="http://www.w3.org/2000/svg" xmlns:xlink="http://www.w3.org/1999/xlink" x="0px" y="0px"
	 width="41.555px" height="83.109px" viewBox="0 0 41.555 83.109" enable-background="new 0 0 41.555 83.109" xml:space="preserve">
<path fill="#F2F2F2" d="M39.345,0H2.21C0.99,0,0,0.989,0,2.21v37.134c0,1.222,0.99,2.211,2.21,2.211h37.134
	c1.221,0,2.21-0.989,2.21-2.211V2.21C41.555,0.989,40.565,0,39.345,0z M29.588,9.444l-3.193,0.001c-2.504,0-2.987,1.19-2.987,2.938
	v3.851h5.972l-0.002,6.032h-5.97v15.479h-6.23V22.265h-5.209v-6.032h5.209v-4.446c0-5.162,3.153-7.975,7.758-7.975l4.654,0.008
	L29.588,9.444L29.588,9.444z"/>
<path fill="#000033" d="M29.588,9.429L26.395,9.43c-2.504,0-2.987,1.19-2.987,2.938v3.851h5.972l-0.002,6.032h-5.97v15.478h-6.23
	V22.249h-5.209v-6.032h5.209V11.77c0-5.162,3.153-7.974,7.758-7.974l4.654,0.008L29.588,9.429L29.588,9.429z"/>
<path fill="#000033" d="M39.345,41.555H2.21c-1.22,0-2.21,0.988-2.21,2.21v37.134c0,1.222,0.99,2.211,2.21,2.211h37.134
	c1.221,0,2.21-0.989,2.21-2.211V43.765C41.555,42.543,40.565,41.555,39.345,41.555z M29.588,50.998l-3.193,0.001
	c-2.504,0-2.987,1.19-2.987,2.938v3.851h5.972l-0.002,6.032h-5.97v15.479h-6.23V63.82h-5.209v-6.032h5.209v-4.446
	c0-5.162,3.153-7.975,7.758-7.975l4.654,0.008L29.588,50.998L29.588,50.998z"/>
<path fill="#F2F2F2" d="M29.588,50.984l-3.193,0.001c-2.504,0-2.987,1.19-2.987,2.938v3.851h5.972l-0.002,6.032h-5.97v15.478h-6.23
	V63.804h-5.209v-6.032h5.209v-4.447c0-5.162,3.153-7.974,7.758-7.974l4.654,0.008L29.588,50.984L29.588,50.984z"/>
</svg>
