<?xml version="1.0" encoding="utf-8"?>
<!-- Generator: Adobe Illustrator 16.0.0, SVG Export Plug-In . SVG Version: 6.00 Build 0)  -->
<!DOCTYPE svg PUBLIC "-//W3C//DTD SVG 1.1//EN" "http://www.w3.org/Graphics/SVG/1.1/DTD/svg11.dtd">
<svg version="1.1" id="Calque_1" xmlns="http://www.w3.org/2000/svg" xmlns:xlink="http://www.w3.org/1999/xlink" x="0px" y="0px"
	 width="41.555px" height="83.109px" viewBox="0 0 41.555 83.109" enable-background="new 0 0 41.555 83.109" xml:space="preserve">
<path fill="#F2F2F2" d="M39.345,0H2.21C0.99,0,0,0.989,0,2.21v37.135c0,1.222,0.99,2.211,2.21,2.211h37.134
	c1.221,0,2.21-0.989,2.21-2.211V2.21C41.555,0.989,40.565,0,39.345,0z"/>
<path fill="#000033" d="M39.345,41.555H2.21c-1.22,0-2.21,0.987-2.21,2.21v37.134c0,1.222,0.99,2.211,2.21,2.211h37.134
	c1.221,0,2.21-0.989,2.21-2.211V43.765C41.555,42.543,40.565,41.555,39.345,41.555z"/>
<path fill="#000033" d="M7.607,17.321h6.412v20.597H7.607V17.321z M10.815,7.082c2.05,0,3.712,1.664,3.712,3.71
	c0,2.049-1.663,3.713-3.712,3.713c-2.057,0-3.716-1.664-3.716-3.713C7.099,8.746,8.758,7.082,10.815,7.082"/>
<path fill="#000033" d="M18.038,17.321h6.14v2.814h0.087c0.854-1.62,2.945-3.327,6.062-3.327c6.48,0,7.68,4.264,7.68,9.811v11.298
	h-6.399V27.904c0-2.391-0.048-5.463-3.329-5.463c-3.334,0-3.842,2.602-3.842,5.287v10.19h-6.398V17.321z"/>
<path fill="#F2F2F2" d="M7.607,57.154h6.412v20.597H7.607V57.154z M10.815,46.915c2.05,0,3.712,1.664,3.712,3.71
	c0,2.05-1.663,3.713-3.712,3.713c-2.057,0-3.716-1.663-3.716-3.713C7.099,48.579,8.758,46.915,10.815,46.915"/>
<path fill="#F2F2F2" d="M18.038,57.154h6.14v2.814h0.087c0.854-1.62,2.945-3.326,6.062-3.326c6.48,0,7.68,4.264,7.68,9.811v11.298
	h-6.399V67.736c0-2.391-0.048-5.463-3.329-5.463c-3.334,0-3.842,2.602-3.842,5.287v10.19h-6.398V57.154z"/>
</svg>
