<?xml version="1.0" encoding="utf-8"?>
<!-- Generator: Adobe Illustrator 16.0.0, SVG Export Plug-In . SVG Version: 6.00 Build 0)  -->
<!DOCTYPE svg PUBLIC "-//W3C//DTD SVG 1.1//EN" "http://www.w3.org/Graphics/SVG/1.1/DTD/svg11.dtd">
<svg version="1.1" id="Calque_1" xmlns="http://www.w3.org/2000/svg" xmlns:xlink="http://www.w3.org/1999/xlink" x="0px" y="0px"
	 width="41.555px" height="83.109px" viewBox="0 0 41.555 83.109" enable-background="new 0 0 41.555 83.109" xml:space="preserve">
<path fill="#F2F2F2" d="M39.345,0H2.21C0.99,0,0,0.989,0,2.21v37.135c0,1.222,0.99,2.211,2.21,2.211h37.134
	c1.221,0,2.21-0.989,2.21-2.211V2.21C41.555,0.989,40.565,0,39.345,0z"/>
<path fill="#000033" d="M39.345,41.555H2.21c-1.22,0-2.21,0.987-2.21,2.21v37.134c0,1.222,0.99,2.211,2.21,2.211h37.134
	c1.221,0,2.21-0.989,2.21-2.211V43.765C41.555,42.543,40.565,41.555,39.345,41.555z"/>
<path fill="#F2F2F2" d="M39.476,51.976c-1.343,0.596-2.785,0.998-4.298,1.179c1.545-0.927,2.733-2.392,3.29-4.14
	c-1.444,0.857-3.045,1.48-4.75,1.816c-1.366-1.455-3.313-2.363-5.464-2.363c-4.133,0-7.484,3.351-7.484,7.483
	c0,0.587,0.066,1.157,0.193,1.704c-6.218-0.311-11.732-3.29-15.424-7.819c-0.644,1.107-1.013,2.392-1.013,3.764
	c0,2.595,1.32,4.888,3.328,6.229c-1.226-0.038-2.38-0.376-3.39-0.937v0.095c0,3.625,2.581,6.65,6.003,7.338
	c-0.627,0.17-1.291,0.264-1.972,0.264c-0.481,0-0.952-0.049-1.407-0.136c0.951,2.974,3.715,5.136,6.989,5.198
	c-2.56,2.007-5.786,3.203-9.295,3.203c-0.603,0-1.198-0.036-1.783-0.104c3.312,2.121,7.245,3.36,11.473,3.36
	c13.765,0,21.291-11.401,21.291-21.292c0-0.322-0.009-0.646-0.021-0.969C37.203,54.797,38.47,53.477,39.476,51.976"/>
<path fill="#000033" d="M39.476,9.465c-1.343,0.596-2.785,0.998-4.298,1.179c1.545-0.927,2.733-2.392,3.29-4.14
	c-1.444,0.857-3.045,1.48-4.75,1.816c-1.366-1.455-3.313-2.363-5.464-2.363c-4.133,0-7.484,3.351-7.484,7.483
	c0,0.587,0.066,1.157,0.193,1.704c-6.218-0.311-11.732-3.29-15.424-7.819c-0.644,1.107-1.013,2.392-1.013,3.764
	c0,2.595,1.32,4.888,3.328,6.229c-1.226-0.038-2.38-0.376-3.39-0.937v0.095c0,3.625,2.581,6.65,6.003,7.338
	c-0.627,0.17-1.291,0.264-1.972,0.264c-0.481,0-0.952-0.049-1.407-0.136c0.951,2.974,3.715,5.136,6.989,5.198
	c-2.56,2.007-5.786,3.203-9.295,3.203c-0.603,0-1.198-0.036-1.783-0.104c3.312,2.121,7.245,3.36,11.473,3.36
	c13.765,0,21.291-11.401,21.291-21.292c0-0.322-0.009-0.646-0.021-0.969C37.203,12.285,38.47,10.966,39.476,9.465"/>
</svg>
